<svg xmlns="http://www.w3.org/2000/svg" width="1220" height="520" viewBox="0 0 1220 520">
<rect width="100%" height="100%" fill="#fafafa"/>
<text x="610" y="32" text-anchor="middle" font-size="22" font-family="Arial" fill="#1f1f1f">Updated Normal-like Distribution (Center Level 5)</text>
<rect x="50" y="70" width="535" height="390" fill="#ffffff" stroke="#d9d9d9"/>
<text x="317.5" y="52" text-anchor="middle" font-size="18" font-family="Arial" fill="#222">Per Task Regular Trials (n=228)</text>
<text x="317.5" y="488" text-anchor="middle" font-size="13" font-family="Arial" fill="#555">Catch trials per task: 24</text>
<line x1="86" y1="424" x2="565" y2="424" stroke="#888"/>
<line x1="86" y1="424" x2="86" y2="110" stroke="#888"/>
<rect x="105.4" y="387.5" width="44.6" height="36.5" fill="#4c78a8" opacity="0.9"/>
<text x="127.7" y="381.5" text-anchor="middle" font-size="11" font-family="Arial" fill="#222">6</text>
<text x="127.7" y="440.0" text-anchor="middle" font-size="11" font-family="Arial" fill="#444">1</text>
<rect x="147.0" y="332.8" width="44.6" height="91.2" fill="#4c78a8" opacity="0.9"/>
<text x="169.3" y="326.8" text-anchor="middle" font-size="11" font-family="Arial" fill="#222">15</text>
<text x="169.3" y="440.0" text-anchor="middle" font-size="11" font-family="Arial" fill="#444">2</text>
<rect x="188.7" y="259.8" width="44.6" height="164.2" fill="#4c78a8" opacity="0.9"/>
<text x="211.0" y="253.8" text-anchor="middle" font-size="11" font-family="Arial" fill="#222">27</text>
<text x="211.0" y="440.0" text-anchor="middle" font-size="11" font-family="Arial" fill="#444">3</text>
<rect x="230.3" y="168.6" width="44.6" height="255.4" fill="#4c78a8" opacity="0.9"/>
<text x="252.6" y="162.6" text-anchor="middle" font-size="11" font-family="Arial" fill="#222">42</text>
<text x="252.6" y="440.0" text-anchor="middle" font-size="11" font-family="Arial" fill="#444">4</text>
<rect x="272.0" y="150.4" width="44.6" height="273.6" fill="#4c78a8" opacity="0.9"/>
<text x="294.3" y="144.4" text-anchor="middle" font-size="11" font-family="Arial" fill="#222">45</text>
<text x="294.3" y="440.0" text-anchor="middle" font-size="11" font-family="Arial" fill="#444">5</text>
<rect x="313.6" y="168.6" width="44.6" height="255.4" fill="#4c78a8" opacity="0.9"/>
<text x="335.9" y="162.6" text-anchor="middle" font-size="11" font-family="Arial" fill="#222">42</text>
<text x="335.9" y="440.0" text-anchor="middle" font-size="11" font-family="Arial" fill="#444">6</text>
<rect x="355.3" y="259.8" width="44.6" height="164.2" fill="#4c78a8" opacity="0.9"/>
<text x="377.6" y="253.8" text-anchor="middle" font-size="11" font-family="Arial" fill="#222">27</text>
<text x="377.6" y="440.0" text-anchor="middle" font-size="11" font-family="Arial" fill="#444">7</text>
<rect x="396.9" y="332.8" width="44.6" height="91.2" fill="#4c78a8" opacity="0.9"/>
<text x="419.2" y="326.8" text-anchor="middle" font-size="11" font-family="Arial" fill="#222">15</text>
<text x="419.2" y="440.0" text-anchor="middle" font-size="11" font-family="Arial" fill="#444">8</text>
<rect x="438.6" y="387.5" width="44.6" height="36.5" fill="#4c78a8" opacity="0.9"/>
<text x="460.9" y="381.5" text-anchor="middle" font-size="11" font-family="Arial" fill="#222">6</text>
<text x="460.9" y="440.0" text-anchor="middle" font-size="11" font-family="Arial" fill="#444">9</text>
<rect x="480.2" y="405.8" width="44.6" height="18.2" fill="#4c78a8" opacity="0.9"/>
<text x="502.5" y="399.8" text-anchor="middle" font-size="11" font-family="Arial" fill="#222">3</text>
<text x="502.5" y="440.0" text-anchor="middle" font-size="11" font-family="Arial" fill="#444">10</text>
<line x1="86" y1="424.0" x2="565" y2="424.0" stroke="#f0f0f0"/>
<text x="78" y="428.0" text-anchor="end" font-size="10" font-family="Arial" fill="#666">0</text>
<line x1="86" y1="272.0" x2="565" y2="272.0" stroke="#f0f0f0"/>
<text x="78" y="276.0" text-anchor="end" font-size="10" font-family="Arial" fill="#666">25</text>
<line x1="86" y1="120.0" x2="565" y2="120.0" stroke="#f0f0f0"/>
<text x="78" y="124.0" text-anchor="end" font-size="10" font-family="Arial" fill="#666">50</text>
<rect x="620" y="70" width="535" height="390" fill="#ffffff" stroke="#d9d9d9"/>
<text x="887.5" y="52" text-anchor="middle" font-size="18" font-family="Arial" fill="#222">Level Task Regular Trials (High+Low, n=456)</text>
<text x="887.5" y="488" text-anchor="middle" font-size="13" font-family="Arial" fill="#555">Catch trials total: 48 | Grand total: 504</text>
<line x1="656" y1="424" x2="1135" y2="424" stroke="#888"/>
<line x1="656" y1="424" x2="656" y2="110" stroke="#888"/>
<rect x="675.4" y="387.5" width="44.6" height="36.5" fill="#59a14f" opacity="0.9"/>
<text x="697.7" y="381.5" text-anchor="middle" font-size="11" font-family="Arial" fill="#222">12</text>
<text x="697.7" y="440.0" text-anchor="middle" font-size="11" font-family="Arial" fill="#444">1</text>
<rect x="717.0" y="332.8" width="44.6" height="91.2" fill="#59a14f" opacity="0.9"/>
<text x="739.3" y="326.8" text-anchor="middle" font-size="11" font-family="Arial" fill="#222">30</text>
<text x="739.3" y="440.0" text-anchor="middle" font-size="11" font-family="Arial" fill="#444">2</text>
<rect x="758.7" y="259.8" width="44.6" height="164.2" fill="#59a14f" opacity="0.9"/>
<text x="781.0" y="253.8" text-anchor="middle" font-size="11" font-family="Arial" fill="#222">54</text>
<text x="781.0" y="440.0" text-anchor="middle" font-size="11" font-family="Arial" fill="#444">3</text>
<rect x="800.3" y="168.6" width="44.6" height="255.4" fill="#59a14f" opacity="0.9"/>
<text x="822.6" y="162.6" text-anchor="middle" font-size="11" font-family="Arial" fill="#222">84</text>
<text x="822.6" y="440.0" text-anchor="middle" font-size="11" font-family="Arial" fill="#444">4</text>
<rect x="842.0" y="150.4" width="44.6" height="273.6" fill="#59a14f" opacity="0.9"/>
<text x="864.3" y="144.4" text-anchor="middle" font-size="11" font-family="Arial" fill="#222">90</text>
<text x="864.3" y="440.0" text-anchor="middle" font-size="11" font-family="Arial" fill="#444">5</text>
<rect x="883.6" y="168.6" width="44.6" height="255.4" fill="#59a14f" opacity="0.9"/>
<text x="905.9" y="162.6" text-anchor="middle" font-size="11" font-family="Arial" fill="#222">84</text>
<text x="905.9" y="440.0" text-anchor="middle" font-size="11" font-family="Arial" fill="#444">6</text>
<rect x="925.3" y="259.8" width="44.6" height="164.2" fill="#59a14f" opacity="0.9"/>
<text x="947.6" y="253.8" text-anchor="middle" font-size="11" font-family="Arial" fill="#222">54</text>
<text x="947.6" y="440.0" text-anchor="middle" font-size="11" font-family="Arial" fill="#444">7</text>
<rect x="966.9" y="332.8" width="44.6" height="91.2" fill="#59a14f" opacity="0.9"/>
<text x="989.2" y="326.8" text-anchor="middle" font-size="11" font-family="Arial" fill="#222">30</text>
<text x="989.2" y="440.0" text-anchor="middle" font-size="11" font-family="Arial" fill="#444">8</text>
<rect x="1008.6" y="387.5" width="44.6" height="36.5" fill="#59a14f" opacity="0.9"/>
<text x="1030.9" y="381.5" text-anchor="middle" font-size="11" font-family="Arial" fill="#222">12</text>
<text x="1030.9" y="440.0" text-anchor="middle" font-size="11" font-family="Arial" fill="#444">9</text>
<rect x="1050.2" y="405.8" width="44.6" height="18.2" fill="#59a14f" opacity="0.9"/>
<text x="1072.5" y="399.8" text-anchor="middle" font-size="11" font-family="Arial" fill="#222">6</text>
<text x="1072.5" y="440.0" text-anchor="middle" font-size="11" font-family="Arial" fill="#444">10</text>
<line x1="656" y1="424.0" x2="1135" y2="424.0" stroke="#f0f0f0"/>
<text x="648" y="428.0" text-anchor="end" font-size="10" font-family="Arial" fill="#666">0</text>
<line x1="656" y1="272.0" x2="1135" y2="272.0" stroke="#f0f0f0"/>
<text x="648" y="276.0" text-anchor="end" font-size="10" font-family="Arial" fill="#666">50</text>
<line x1="656" y1="120.0" x2="1135" y2="120.0" stroke="#f0f0f0"/>
<text x="648" y="124.0" text-anchor="end" font-size="10" font-family="Arial" fill="#666">100</text>
</svg>