<svg xmlns="http://www.w3.org/2000/svg" width="1120" height="520" viewBox="0 0 1120 520">
<rect width="100%" height="100%" fill="#fbfbfb"/>
<text x="560" y="34" text-anchor="middle" font-size="22" font-family="Arial" fill="#1f1f1f">the distribution of each difficult level for each task</text>
<text x="560" y="58" text-anchor="middle" font-size="13" font-family="Arial" fill="#555">Per Task: Regular 228 = Base 108 + Comparison 120, Catch 24</text>
<rect x="70" y="90" width="980" height="360" fill="#fff" stroke="#ddd"/>
<line x1="120" y1="406" x2="1010" y2="406" stroke="#888"/>
<line x1="120" y1="406" x2="120" y2="136" stroke="#888"/>
<rect x="165.6" y="375.8" width="63.6" height="30.2" fill="#4c78a8"/>
<text x="197.4" y="369.8" text-anchor="middle" font-size="11" font-family="Arial">3</text>
<text x="197.4" y="423.0" text-anchor="middle" font-size="11" font-family="Arial">1</text>
<rect x="243.0" y="325.4" width="63.6" height="80.6" fill="#4c78a8"/>
<text x="274.8" y="319.4" text-anchor="middle" font-size="11" font-family="Arial">8</text>
<text x="274.8" y="423.0" text-anchor="middle" font-size="11" font-family="Arial">2</text>
<rect x="320.4" y="264.9" width="63.6" height="141.1" fill="#4c78a8"/>
<text x="352.2" y="258.9" text-anchor="middle" font-size="11" font-family="Arial">14</text>
<text x="352.2" y="423.0" text-anchor="middle" font-size="11" font-family="Arial">3</text>
<rect x="397.8" y="184.3" width="63.6" height="221.7" fill="#4c78a8"/>
<text x="429.6" y="178.3" text-anchor="middle" font-size="11" font-family="Arial">22</text>
<text x="429.6" y="423.0" text-anchor="middle" font-size="11" font-family="Arial">4</text>
<rect x="475.2" y="164.2" width="63.6" height="241.8" fill="#4c78a8"/>
<text x="507.0" y="158.2" text-anchor="middle" font-size="11" font-family="Arial">24</text>
<text x="507.0" y="423.0" text-anchor="middle" font-size="11" font-family="Arial">5</text>
<rect x="552.6" y="184.3" width="63.6" height="221.7" fill="#4c78a8"/>
<text x="584.3" y="178.3" text-anchor="middle" font-size="11" font-family="Arial">22</text>
<text x="584.3" y="423.0" text-anchor="middle" font-size="11" font-family="Arial">6</text>
<rect x="630.0" y="264.9" width="63.6" height="141.1" fill="#4c78a8"/>
<text x="661.7" y="258.9" text-anchor="middle" font-size="11" font-family="Arial">14</text>
<text x="661.7" y="423.0" text-anchor="middle" font-size="11" font-family="Arial">7</text>
<rect x="707.3" y="325.4" width="63.6" height="80.6" fill="#4c78a8"/>
<text x="739.1" y="319.4" text-anchor="middle" font-size="11" font-family="Arial">8</text>
<text x="739.1" y="423.0" text-anchor="middle" font-size="11" font-family="Arial">8</text>
<rect x="784.7" y="375.8" width="63.6" height="30.2" fill="#4c78a8"/>
<text x="816.5" y="369.8" text-anchor="middle" font-size="11" font-family="Arial">3</text>
<text x="816.5" y="423.0" text-anchor="middle" font-size="11" font-family="Arial">9</text>
<rect x="862.1" y="385.8" width="63.6" height="20.2" fill="#4c78a8"/>
<text x="893.9" y="379.8" text-anchor="middle" font-size="11" font-family="Arial">2</text>
<text x="893.9" y="423.0" text-anchor="middle" font-size="11" font-family="Arial">10</text>
<line x1="120" y1="406.0" x2="1010" y2="406.0" stroke="#f0f0f0"/>
<text x="112" y="410.0" text-anchor="end" font-size="10" font-family="Arial" fill="#666">0</text>
<line x1="120" y1="275.0" x2="1010" y2="275.0" stroke="#f0f0f0"/>
<text x="112" y="279.0" text-anchor="end" font-size="10" font-family="Arial" fill="#666">13</text>
<line x1="120" y1="144.0" x2="1010" y2="144.0" stroke="#f0f0f0"/>
<text x="112" y="148.0" text-anchor="end" font-size="10" font-family="Arial" fill="#666">26</text>
<text x="560" y="468" text-anchor="middle" font-size="13" font-family="Arial" fill="#333">Comparison-level counts (used in Base+Comparison+Comparison groups)</text>
</svg>